<?xml version="1.0" encoding="UTF-8" standalone="no"?>
<!-- Created with Inkscape (http://www.inkscape.org/) -->

<svg
   xmlns:dc="http://purl.org/dc/elements/1.1/"
   xmlns:cc="http://creativecommons.org/ns#"
   xmlns:rdf="http://www.w3.org/1999/02/22-rdf-syntax-ns#"
   xmlns:svg="http://www.w3.org/2000/svg"
   xmlns="http://www.w3.org/2000/svg"
   xmlns:sodipodi="http://sodipodi.sourceforge.net/DTD/sodipodi-0.dtd"
   xmlns:inkscape="http://www.inkscape.org/namespaces/inkscape"
   width="1198"
   height="1081"
   id="svg3861"
   version="1.1"
   inkscape:version="0.48.5 r10040"
   sodipodi:docname="dual_wuerfel.svg">
  <defs
     id="defs3863" />
  <sodipodi:namedview
     id="base"
     pagecolor="#ffffff"
     bordercolor="#666666"
     borderopacity="1.0"
     inkscape:pageopacity="0.0"
     inkscape:pageshadow="2"
     inkscape:zoom="0.24748737"
     inkscape:cx="4.3212261"
     inkscape:cy="792.43433"
     inkscape:document-units="px"
     inkscape:current-layer="layer4"
     showgrid="false"
     fit-margin-top="0"
     fit-margin-left="0"
     fit-margin-right="0"
     fit-margin-bottom="0"
     inkscape:window-width="679"
     inkscape:window-height="732"
     inkscape:window-x="683"
     inkscape:window-y="34"
     inkscape:window-maximized="0" />
  <metadata
     id="metadata3866">
    <rdf:RDF>
      <cc:Work
         rdf:about="">
        <dc:format>image/svg+xml</dc:format>
        <dc:type
           rdf:resource="http://purl.org/dc/dcmitype/StillImage" />
        <dc:title />
      </cc:Work>
    </rdf:RDF>
  </metadata>
  <g
     inkscape:groupmode="layer"
     id="layer4"
     inkscape:label="Würfel"
     sodipodi:insensitive="true">
    <path
       style="fill:none;stroke:#000000;stroke-width:10;stroke-linecap:butt;stroke-linejoin:miter;stroke-miterlimit:4;stroke-opacity:1;stroke-dasharray:40, 10;stroke-dashoffset:0"
       d="M 2.8571429,1072.4286 360,829.57143 l 831.4286,5.71428 M 360,832.42857 357.14286,6.7142857"
       id="path4392"
       inkscape:connector-curvature="0" />
    <path
       style="fill:none;stroke:#000000;stroke-width:10;stroke-linecap:butt;stroke-linejoin:round;stroke-miterlimit:4;stroke-opacity:1;stroke-dasharray:none"
       d="m 4.2857143,1075.2857 4.2857143,-839.99999 832.8571414,0 0,841.42859 z M 841.3023,1076.7539 1191.4286,835.28571 1188.5714,5.2857137 841.42857,235.28571 M 1191.4286,5.2857137 l -832.85717,0 L 8.3585021,235.36494"
       id="path3882"
       inkscape:connector-curvature="0"
       sodipodi:nodetypes="cccccccccccc" />
  </g>
  <g
     inkscape:groupmode="layer"
     id="layer5"
     inkscape:label="Dualität">
    <path
       sodipodi:type="arc"
       style="fill:#ff0000;fill-opacity:1;fill-rule:nonzero;stroke:none"
       id="path4401-4"
       sodipodi:cx="236.3757"
       sodipodi:cy="658.75623"
       sodipodi:rx="18.182745"
       sodipodi:ry="18.182745"
       d="m 254.55845,658.75623 a 18.182745,18.182745 0 1 1 -36.36549,0 18.182745,18.182745 0 1 1 36.36549,0 z"
       transform="translate(-48.487329,-125.2589)" />
    <path
       sodipodi:type="arc"
       style="fill:#ff0000;fill-opacity:1;fill-rule:nonzero;stroke:none"
       id="path4401-8"
       sodipodi:cx="236.3757"
       sodipodi:cy="658.75623"
       sodipodi:rx="18.182745"
       sodipodi:ry="18.182745"
       d="m 254.55845,658.75623 a 18.182745,18.182745 0 1 1 -36.36549,0 18.182745,18.182745 0 1 1 36.36549,0 z"
       transform="translate(359.6143,292.94425)" />
    <path
       sodipodi:type="arc"
       style="fill:#ff0000;fill-opacity:1;fill-rule:nonzero;stroke:none"
       id="path4401-8-8"
       sodipodi:cx="236.3757"
       sodipodi:cy="658.75623"
       sodipodi:rx="18.182745"
       sodipodi:ry="18.182745"
       d="m 254.55845,658.75623 a 18.182745,18.182745 0 1 1 -36.36549,0 18.182745,18.182745 0 1 1 36.36549,0 z"
       transform="translate(541.44175,-236.37568)" />
    <path
       style="fill:none;stroke:#0000ff;stroke-width:10;stroke-linecap:butt;stroke-linejoin:round;stroke-opacity:1;stroke-miterlimit:4;stroke-dasharray:none"
       d="M 1010.1525,535.51763 424.26407,656.73593 593.9697,127.416 1010.1525,537.53793 598.01031,947.65986 426.28437,656.73593 189.90868,537.53793 593.9697,129.4363"
       id="path4394"
       inkscape:connector-curvature="0" />
    <path
       style="fill:none;stroke:#0000ff;stroke-width:10;stroke-linecap:butt;stroke-linejoin:round;stroke-opacity:1;stroke-miterlimit:4;stroke-dasharray:none"
       d="M 189.76337,537.74977 597.96342,947.67611"
       id="path4396"
       inkscape:connector-curvature="0"
       sodipodi:nodetypes="cc" />
    <path
       style="fill:none;stroke:#0000ff;stroke-width:10;stroke-linecap:butt;stroke-linejoin:round;stroke-opacity:1;stroke-miterlimit:4;stroke-dasharray:40, 10;stroke-dashoffset:0"
       d="M 185.86807,537.53793 777.81746,422.38054 600.03061,947.65986 M 1012.1728,537.53793 773.77685,422.38054 595.99,131.45661"
       id="path4399"
       inkscape:connector-curvature="0" />
    <path
       sodipodi:type="arc"
       style="fill:#00ff00;fill-opacity:1;fill-rule:nonzero;stroke:none"
       id="path4401"
       sodipodi:cx="236.3757"
       sodipodi:cy="658.75623"
       sodipodi:rx="18.182745"
       sodipodi:ry="18.182745"
       d="m 254.55845,658.75623 a 18.182745,18.182745 0 1 1 -36.36549,0 18.182745,18.182745 0 1 1 36.36549,0 z"
       transform="translate(189.90868,-2.0203051)" />
    <path
       sodipodi:type="arc"
       style="fill:#00ff00;fill-opacity:1;fill-rule:nonzero;stroke:none"
       id="path4401-5"
       sodipodi:cx="236.3757"
       sodipodi:cy="658.75623"
       sodipodi:rx="18.182745"
       sodipodi:ry="18.182745"
       d="m 254.55845,658.75623 a 18.182745,18.182745 0 1 1 -36.36549,0 18.182745,18.182745 0 1 1 36.36549,0 z"
       transform="translate(777.81745,-121.21829)" />
    <path
       sodipodi:type="arc"
       style="fill:#00ff00;fill-opacity:1;fill-rule:nonzero;stroke:none"
       id="path4401-1"
       sodipodi:cx="236.3757"
       sodipodi:cy="658.75623"
       sodipodi:rx="18.182745"
       sodipodi:ry="18.182745"
       d="m 254.55845,658.75623 a 18.182745,18.182745 0 1 1 -36.36549,0 18.182745,18.182745 0 1 1 36.36549,0 z"
       transform="translate(361.63461,-527.29962)" />
  </g>
</svg>
