<?xml version="1.0" encoding="UTF-8" standalone="no"?>
<!-- Created with Inkscape (http://www.inkscape.org/) -->

<svg
   xmlns:dc="http://purl.org/dc/elements/1.1/"
   xmlns:cc="http://creativecommons.org/ns#"
   xmlns:rdf="http://www.w3.org/1999/02/22-rdf-syntax-ns#"
   xmlns:svg="http://www.w3.org/2000/svg"
   xmlns="http://www.w3.org/2000/svg"
   xmlns:sodipodi="http://sodipodi.sourceforge.net/DTD/sodipodi-0.dtd"
   xmlns:inkscape="http://www.inkscape.org/namespaces/inkscape"
   width="1015"
   height="1254"
   id="svg5901"
   version="1.1"
   inkscape:version="0.48.5 r10040"
   sodipodi:docname="dual_ikosaeder.svg">
  <defs
     id="defs5903" />
  <sodipodi:namedview
     id="base"
     pagecolor="#ffffff"
     bordercolor="#666666"
     borderopacity="1.0"
     inkscape:pageopacity="0.0"
     inkscape:pageshadow="2"
     inkscape:zoom="0.28991378"
     inkscape:cx="30.83732"
     inkscape:cy="694.19178"
     inkscape:document-units="px"
     inkscape:current-layer="layer10"
     showgrid="false"
     fit-margin-top="0"
     fit-margin-left="0"
     fit-margin-right="0"
     fit-margin-bottom="0"
     inkscape:window-width="679"
     inkscape:window-height="732"
     inkscape:window-x="683"
     inkscape:window-y="34"
     inkscape:window-maximized="0" />
  <metadata
     id="metadata5906">
    <rdf:RDF>
      <cc:Work
         rdf:about="">
        <dc:format>image/svg+xml</dc:format>
        <dc:type
           rdf:resource="http://purl.org/dc/dcmitype/StillImage" />
        <dc:title />
      </cc:Work>
    </rdf:RDF>
  </metadata>
  <g
     inkscape:groupmode="layer"
     id="layer10"
     inkscape:label="Ikosaeder"
     style="display:inline"
     sodipodi:insensitive="true">
    <path
       style="fill:none;stroke:#000000;stroke-width:10;stroke-linecap:butt;stroke-linejoin:round;stroke-miterlimit:4;stroke-opacity:1;stroke-dasharray:none"
       d="M 521.95122,1244.2439 1009.7561,986.01219 1004.878,285.70732 519.5122,7.6585366 4.8780488,275.95122 7.3170732,988.14634 z M 795.12195,549.12195 519.5122,7.6585366 227.55633,534.4878 z m 2.43903,0 L 524.39024,1100.3415 1009.7561,985.70732 795.12195,549.12195 1005.4445,285.57206 M 521.95122,1100.3415 226.82927,536.92683 l 0,0 L 7.6932984,988.07871 524.39024,1102.7805 521.95122,1246.6829 M 226.82927,534.4878 5.4878049,276.2561"
       id="path5922"
       inkscape:connector-curvature="0"
       sodipodi:nodetypes="cccccccccccccccccccccccc" />
    <path
       style="fill:none;stroke:#000000;stroke-width:10;stroke-linecap:butt;stroke-linejoin:round;stroke-miterlimit:4;stroke-opacity:1;stroke-dasharray:60, 10;stroke-dashoffset:0"
       d="M 4.8780488,985.70732 229.26829,719.85366 4.8780488,275.95122 524.39024,149.12195 1007.3171,283.26829 797.56098,707.65854 1009.7561,983.26829 M 800,712.53659 524.39024,1246.6829 226.82927,712.53659 z m -2.43902,2.43902 L 521.95122,146.68293 224.39024,712.53659 m 300,-565.85366 0,-129.268296"
       id="path6432"
       inkscape:connector-curvature="0" />
  </g>
  <g
     inkscape:groupmode="layer"
     id="layer11"
     inkscape:label="Dualität"
     style="display:inline">
    <path
       sodipodi:type="arc"
       style="fill:#ff0000;fill-opacity:1;fill-rule:nonzero;stroke:none"
       id="path6440"
       sodipodi:cx="-126.82927"
       sodipodi:cy="549.12195"
       sodipodi:rx="24.390244"
       sodipodi:ry="24.390244"
       d="m -102.43903,549.12195 a 24.390244,24.390244 0 1 1 -48.78048,0 24.390244,24.390244 0 1 1 48.78048,0 z"
       transform="translate(475.60976,-404.87805)" />
    <path
       sodipodi:type="arc"
       style="fill:#ff0000;fill-opacity:1;fill-rule:nonzero;stroke:none"
       id="path6440-4"
       sodipodi:cx="-126.82927"
       sodipodi:cy="549.12195"
       sodipodi:rx="24.390244"
       sodipodi:ry="24.390244"
       d="m -102.43903,549.12195 a 24.390244,24.390244 0 1 1 -48.78048,0 24.390244,24.390244 0 1 1 48.78048,0 z"
       transform="translate(831.70732,-395.12194)" />
    <path
       sodipodi:type="arc"
       style="fill:#ff0000;fill-opacity:1;fill-rule:nonzero;stroke:none"
       id="path6440-6"
       sodipodi:cx="-126.82927"
       sodipodi:cy="549.12195"
       sodipodi:rx="24.390244"
       sodipodi:ry="24.390244"
       d="m -102.43903,549.12195 a 24.390244,24.390244 0 1 1 -48.78048,0 24.390244,24.390244 0 1 1 48.78048,0 z"
       transform="translate(904.87805,-165.85366)" />
    <path
       sodipodi:type="arc"
       style="fill:#ff0000;fill-opacity:1;fill-rule:nonzero;stroke:none"
       id="path6440-2"
       sodipodi:cx="-126.82927"
       sodipodi:cy="549.12195"
       sodipodi:rx="24.390244"
       sodipodi:ry="24.390244"
       d="m -102.43903,549.12195 a 24.390244,24.390244 0 1 1 -48.78048,0 24.390244,24.390244 0 1 1 48.78048,0 z"
       transform="translate(1058.5366,112.19513)" />
    <path
       sodipodi:type="arc"
       style="fill:#ff0000;fill-opacity:1;fill-rule:nonzero;stroke:none"
       id="path6440-9"
       sodipodi:cx="-126.82927"
       sodipodi:cy="549.12195"
       sodipodi:rx="24.390244"
       sodipodi:ry="24.390244"
       d="m -102.43903,549.12195 a 24.390244,24.390244 0 1 1 -48.78048,0 24.390244,24.390244 0 1 1 48.78048,0 z"
       transform="translate(907.31709,424.39025)" />
    <path
       sodipodi:type="arc"
       style="fill:#ff0000;fill-opacity:1;fill-rule:nonzero;stroke:none"
       id="path6440-3"
       sodipodi:cx="-126.82927"
       sodipodi:cy="549.12195"
       sodipodi:rx="24.390244"
       sodipodi:ry="24.390244"
       d="m -102.43903,549.12195 a 24.390244,24.390244 0 1 1 -48.78048,0 24.390244,24.390244 0 1 1 48.78048,0 z"
       transform="translate(641.46342,336.58537)" />
    <path
       sodipodi:type="arc"
       style="fill:#ff0000;fill-opacity:1;fill-rule:nonzero;stroke:none"
       id="path6440-0"
       sodipodi:cx="-126.82927"
       sodipodi:cy="549.12195"
       sodipodi:rx="24.390244"
       sodipodi:ry="24.390244"
       d="m -102.43903,549.12195 a 24.390244,24.390244 0 1 1 -48.78048,0 24.390244,24.390244 0 1 1 48.78048,0 z"
       transform="translate(380.4878,426.82927)" />
    <path
       sodipodi:type="arc"
       style="fill:#ff0000;fill-opacity:1;fill-rule:nonzero;stroke:none"
       id="path6440-5"
       sodipodi:cx="-126.82927"
       sodipodi:cy="549.12195"
       sodipodi:rx="24.390244"
       sodipodi:ry="24.390244"
       d="m -102.43903,549.12195 a 24.390244,24.390244 0 1 1 -48.78048,0 24.390244,24.390244 0 1 1 48.78048,0 z"
       transform="translate(214.63415,119.5122)" />
    <path
       sodipodi:type="arc"
       style="fill:#ff0000;fill-opacity:1;fill-rule:nonzero;stroke:none"
       id="path6440-66"
       sodipodi:cx="-126.82927"
       sodipodi:cy="549.12195"
       sodipodi:rx="24.390244"
       sodipodi:ry="24.390244"
       d="m -102.43903,549.12195 a 24.390244,24.390244 0 1 1 -48.78048,0 24.390244,24.390244 0 1 1 48.78048,0 z"
       transform="translate(382.92683,-158.53659)" />
    <path
       sodipodi:type="arc"
       style="fill:#ff0000;fill-opacity:1;fill-rule:nonzero;stroke:none"
       id="path6440-6-2"
       sodipodi:cx="-126.82927"
       sodipodi:cy="549.12195"
       sodipodi:rx="24.390244"
       sodipodi:ry="24.390244"
       d="m -102.43903,549.12195 a 24.390244,24.390244 0 1 1 -48.78048,0 24.390244,24.390244 0 1 1 48.78048,0 z"
       transform="translate(641.46341,-24.39024)" />
    <path
       style="fill:none;stroke:#0000ff;stroke-width:10;stroke-linecap:butt;stroke-linejoin:round;stroke-miterlimit:4;stroke-opacity:1;stroke-dasharray:none;stroke-dashoffset:0"
       d="m 353.65854,1117.4146 317.07317,-7.317 L 778.04878,975.95122 953.65854,605.21951 797.56098,300.34146 700,158.87805 348.78049,149.12195 251.21951,261.31707 80.487805,605.21951 87.804878,675.95122 253.65854,980.82927 z m 2.43902,2.4391 L 246.34146,868.63415 81.09756,605.82927 M 246.34146,871.07317 519.5122,729.60976 790.2439,880.82927 670.73171,1112.5366 m 118.90243,-232.31709 162.19513,-275 M 519.5122,729.60976 529.26829,378.39024 246.34146,261.31707 m 282.92683,117.07317 268.29269,-78.04878"
       id="path6436"
       inkscape:connector-curvature="0"
       sodipodi:nodetypes="cccccccccccccccccccccccccc" />
    <path
       style="fill:none;stroke:#0000ff;stroke-width:10;stroke-linecap:butt;stroke-linejoin:miter;stroke-miterlimit:4;stroke-opacity:1;stroke-dasharray:40, 10;stroke-dashoffset:0"
       d="M 90.243902,673.5122 256.09756,397.90244 351.21951,146.68293 m -95.12195,243.90244 256.09756,143.90243 2.43903,348.78049 -260.97561,95.12195 m 258.53658,-95.12195 265.85366,92.68293 M 512.19512,534.4878 773.17073,388.14634 931.70732,651.56098 M 775.60976,390.58537 697.56098,156.43902"
       id="path6438"
       inkscape:connector-curvature="0" />
    <path
       sodipodi:type="arc"
       style="fill:#00ff00;fill-opacity:1;fill-rule:nonzero;stroke:none"
       id="path6440-55"
       sodipodi:cx="-126.82927"
       sodipodi:cy="549.12195"
       sodipodi:rx="24.390244"
       sodipodi:ry="24.390244"
       d="m -102.43903,549.12195 a 24.390244,24.390244 0 1 1 -48.78048,0 24.390244,24.390244 0 1 1 48.78048,0 z"
       transform="translate(202.43903,51.219516)" />
    <path
       sodipodi:type="arc"
       style="fill:#00ff00;fill-opacity:1;fill-rule:nonzero;stroke:none"
       id="path6440-55-0"
       sodipodi:cx="-126.82927"
       sodipodi:cy="549.12195"
       sodipodi:rx="24.390244"
       sodipodi:ry="24.390244"
       d="m -102.43903,549.12195 a 24.390244,24.390244 0 1 1 -48.78048,0 24.390244,24.390244 0 1 1 48.78048,0 z"
       transform="translate(1075.6098,51.219515)" />
    <path
       sodipodi:type="arc"
       style="fill:#00ff00;fill-opacity:1;fill-rule:nonzero;stroke:none"
       id="path6440-55-06"
       sodipodi:cx="-126.82927"
       sodipodi:cy="549.12195"
       sodipodi:rx="24.390244"
       sodipodi:ry="24.390244"
       d="m -102.43903,549.12195 a 24.390244,24.390244 0 1 1 -48.78048,0 24.390244,24.390244 0 1 1 48.78048,0 z"
       transform="translate(653.65852,-178.04877)" />
    <path
       sodipodi:type="arc"
       style="fill:#00ff00;fill-opacity:1;fill-rule:nonzero;stroke:none"
       id="path6440-55-1"
       sodipodi:cx="-126.82927"
       sodipodi:cy="549.12195"
       sodipodi:rx="24.390244"
       sodipodi:ry="24.390244"
       d="m -102.43903,549.12195 a 24.390244,24.390244 0 1 1 -48.78048,0 24.390244,24.390244 0 1 1 48.78048,0 z"
       transform="translate(485.36585,570.73171)" />
    <path
       sodipodi:type="arc"
       style="fill:#00ff00;fill-opacity:1;fill-rule:nonzero;stroke:none"
       id="path6440-55-14"
       sodipodi:cx="-126.82927"
       sodipodi:cy="549.12195"
       sodipodi:rx="24.390244"
       sodipodi:ry="24.390244"
       d="m -102.43903,549.12195 a 24.390244,24.390244 0 1 1 -48.78048,0 24.390244,24.390244 0 1 1 48.78048,0 z"
       transform="translate(795.12196,563.41463)" />
    <path
       sodipodi:type="arc"
       style="fill:#00ff00;fill-opacity:1;fill-rule:nonzero;stroke:none"
       id="path6440-55-4"
       sodipodi:cx="-126.82927"
       sodipodi:cy="549.12195"
       sodipodi:rx="24.390244"
       sodipodi:ry="24.390244"
       d="m -102.43903,549.12195 a 24.390244,24.390244 0 1 1 -48.78048,0 24.390244,24.390244 0 1 1 48.78048,0 z"
       transform="translate(914.63415,331.70732)" />
    <path
       sodipodi:type="arc"
       style="fill:#00ff00;fill-opacity:1;fill-rule:nonzero;stroke:none"
       id="path6440-55-8"
       sodipodi:cx="-126.82927"
       sodipodi:cy="549.12195"
       sodipodi:rx="24.390244"
       sodipodi:ry="24.390244"
       d="m -102.43903,549.12195 a 24.390244,24.390244 0 1 1 -48.78048,0 24.390244,24.390244 0 1 1 48.78048,0 z"
       transform="translate(378.04878,317.07317)" />
    <path
       sodipodi:type="arc"
       style="fill:#00ff00;fill-opacity:1;fill-rule:nonzero;stroke:none"
       id="path6440-55-2"
       sodipodi:cx="-126.82927"
       sodipodi:cy="549.12195"
       sodipodi:rx="24.390244"
       sodipodi:ry="24.390244"
       d="m -102.43903,549.12195 a 24.390244,24.390244 0 1 1 -48.78048,0 24.390244,24.390244 0 1 1 48.78048,0 z"
       transform="translate(378.04878,-290.2439)" />
    <path
       sodipodi:type="arc"
       style="fill:#00ff00;fill-opacity:1;fill-rule:nonzero;stroke:none"
       id="path6440-55-26"
       sodipodi:cx="-126.82927"
       sodipodi:cy="549.12195"
       sodipodi:rx="24.390244"
       sodipodi:ry="24.390244"
       d="m -102.43903,549.12195 a 24.390244,24.390244 0 1 1 -48.78048,0 24.390244,24.390244 0 1 1 48.78048,0 z"
       transform="translate(929.26829,-246.34146)" />
    <path
       sodipodi:type="arc"
       style="fill:#00ff00;fill-opacity:1;fill-rule:nonzero;stroke:none"
       id="path6440-55-8-6"
       sodipodi:cx="-126.82927"
       sodipodi:cy="549.12195"
       sodipodi:rx="24.390244"
       sodipodi:ry="24.390244"
       d="m -102.43903,549.12195 a 24.390244,24.390244 0 1 1 -48.78048,0 24.390244,24.390244 0 1 1 48.78048,0 z"
       transform="translate(643.90244,178.04879)" />
  </g>
</svg>
