<?xml version="1.0" encoding="UTF-8" standalone="no"?>
<!-- Created with Inkscape (http://www.inkscape.org/) -->

<svg
   xmlns:dc="http://purl.org/dc/elements/1.1/"
   xmlns:cc="http://creativecommons.org/ns#"
   xmlns:rdf="http://www.w3.org/1999/02/22-rdf-syntax-ns#"
   xmlns:svg="http://www.w3.org/2000/svg"
   xmlns="http://www.w3.org/2000/svg"
   xmlns:sodipodi="http://sodipodi.sourceforge.net/DTD/sodipodi-0.dtd"
   xmlns:inkscape="http://www.inkscape.org/namespaces/inkscape"
   width="1173"
   height="1173"
   id="svg4498"
   version="1.1"
   inkscape:version="0.48.5 r10040"
   sodipodi:docname="oktaeder.svg">
  <defs
     id="defs4500" />
  <sodipodi:namedview
     id="base"
     pagecolor="#ffffff"
     bordercolor="#666666"
     borderopacity="1.0"
     inkscape:pageopacity="0.0"
     inkscape:pageshadow="2"
     inkscape:zoom="0.29029174"
     inkscape:cx="603.48887"
     inkscape:cy="556.0504"
     inkscape:document-units="px"
     inkscape:current-layer="layer6"
     showgrid="false"
     fit-margin-top="0"
     fit-margin-left="0"
     fit-margin-right="0"
     fit-margin-bottom="0"
     inkscape:window-width="679"
     inkscape:window-height="732"
     inkscape:window-x="683"
     inkscape:window-y="34"
     inkscape:window-maximized="0" />
  <metadata
     id="metadata4503">
    <rdf:RDF>
      <cc:Work
         rdf:about="">
        <dc:format>image/svg+xml</dc:format>
        <dc:type
           rdf:resource="http://purl.org/dc/dcmitype/StillImage" />
        <dc:title />
      </cc:Work>
    </rdf:RDF>
  </metadata>
  <g
     inkscape:groupmode="layer"
     id="layer6"
     inkscape:label="Oktaeder">
    <path
       style="fill:none;stroke:#000000;stroke-width:10;stroke-linecap:butt;stroke-linejoin:round;stroke-opacity:1;stroke-miterlimit:4;stroke-dasharray:none"
       d="M 587.03956,1163.2566 1169.2074,583.5246 589.4754,8.6642839 9.7433951,581.08875 z m 4.87169,2.4359 L 365.37732,788.13589 9.7433951,588.39629 M 589.4754,8.6642839 365.37732,793.00759 1169.2074,585.96044"
       id="path4519"
       inkscape:connector-curvature="0" />
    <path
       style="fill:none;stroke:#000000;stroke-width:10;stroke-linecap:butt;stroke-linejoin:round;stroke-opacity:1;stroke-miterlimit:4;stroke-dasharray:40, 10;stroke-dashoffset:0"
       d="M 7.3075463,585.96044 816.00934,395.96424 1169.2074,590.83214 M 591.91125,15.97183 816.00934,400.83594 589.4754,1158.3849"
       id="path5029"
       inkscape:connector-curvature="0" />
  </g>
  <g
     inkscape:groupmode="layer"
     id="layer7"
     inkscape:label="Dualität"
     style="display:none">
    <path
       style="fill:none;stroke:#0000ff;stroke-width:10;stroke-linecap:butt;stroke-linejoin:miter;stroke-miterlimit:4;stroke-opacity:1;stroke-dasharray:none"
       d="m 711.26784,847.81419 148.58678,-129.09999 -3.65377,-387.29995 -384.86411,0 -153.45847,132.75376 0,383.64618 z m -2.43585,1.21792 0,-384.8641 L 853.765,332.63217"
       id="path5031"
       inkscape:connector-curvature="0" />
    <path
       style="fill:none;stroke:#0000ff;stroke-width:10;stroke-linecap:butt;stroke-linejoin:miter;stroke-miterlimit:4;stroke-opacity:1;stroke-dasharray:none"
       d="m 707.61407,464.16801 -390.95373,0"
       id="path5033"
       inkscape:connector-curvature="0" />
    <path
       style="fill:none;stroke:#0000ff;stroke-width:10;stroke-linecap:butt;stroke-linejoin:round;stroke-miterlimit:4;stroke-opacity:1;stroke-dasharray:40, 10;stroke-dashoffset:0"
       d="m 472.55466,332.63217 2.43585,384.86411 384.86411,2.43585 m -386.08203,-4.8717 -147.36885,132.75376"
       id="path5035"
       inkscape:connector-curvature="0" />
    <path
       sodipodi:type="arc"
       style="fill:#ff0000;fill-opacity:1;fill-rule:nonzero;stroke:none"
       id="path5037"
       sodipodi:cx="217.39951"
       sodipodi:cy="545.15997"
       sodipodi:rx="15.224055"
       sodipodi:ry="15.224055"
       d="m 232.62356,545.15997 a 15.224055,15.224055 0 1 1 -30.44811,0 15.224055,15.224055 0 1 1 30.44811,0 z"
       transform="translate(258.19997,169.29149)" />
    <path
       sodipodi:type="arc"
       style="fill:#ff0000;fill-opacity:1;fill-rule:nonzero;stroke:none"
       id="path5037-6"
       sodipodi:cx="217.39951"
       sodipodi:cy="545.15997"
       sodipodi:rx="15.224055"
       sodipodi:ry="15.224055"
       d="m 232.62356,545.15997 a 15.224055,15.224055 0 1 1 -30.44811,0 15.224055,15.224055 0 1 1 30.44811,0 z"
       transform="translate(641.23719,173.55423)" />
    <path
       sodipodi:type="arc"
       style="fill:#ff0000;fill-opacity:1;fill-rule:nonzero;stroke:none"
       id="path5037-1"
       sodipodi:cx="217.39951"
       sodipodi:cy="545.15997"
       sodipodi:rx="15.224055"
       sodipodi:ry="15.224055"
       d="m 232.62356,545.15997 a 15.224055,15.224055 0 1 1 -30.44811,0 15.224055,15.224055 0 1 1 30.44811,0 z"
       transform="translate(638.80134,-212.5278)" />
    <path
       sodipodi:type="arc"
       style="fill:#ff0000;fill-opacity:1;fill-rule:nonzero;stroke:none"
       id="path5037-5"
       sodipodi:cx="217.39951"
       sodipodi:cy="545.15997"
       sodipodi:rx="15.224055"
       sodipodi:ry="15.224055"
       d="m 232.62356,545.15997 a 15.224055,15.224055 0 1 1 -30.44811,0 15.224055,15.224055 0 1 1 30.44811,0 z"
       transform="translate(256.37308,-216.18158)" />
    <path
       sodipodi:type="arc"
       style="fill:#00ff00;fill-opacity:1;fill-rule:nonzero;stroke:none"
       id="path5037-60"
       sodipodi:cx="217.39951"
       sodipodi:cy="545.15997"
       sodipodi:rx="15.224055"
       sodipodi:ry="15.224055"
       d="m 232.62356,545.15997 a 15.224055,15.224055 0 1 1 -30.44811,0 15.224055,15.224055 0 1 1 30.44811,0 z"
       transform="translate(104.13254,-80.991966)" />
    <path
       sodipodi:type="arc"
       style="fill:#00ff00;fill-opacity:1;fill-rule:nonzero;stroke:none"
       id="path5037-9"
       sodipodi:cx="217.39951"
       sodipodi:cy="545.15997"
       sodipodi:rx="15.224055"
       sodipodi:ry="15.224055"
       d="m 232.62356,545.15997 a 15.224055,15.224055 0 1 1 -30.44811,0 15.224055,15.224055 0 1 1 30.44811,0 z"
       transform="translate(491.43249,-78.55612)" />
    <path
       sodipodi:type="arc"
       style="fill:#00ff00;fill-opacity:1;fill-rule:nonzero;stroke:none"
       id="path5037-9-8"
       sodipodi:cx="217.39951"
       sodipodi:cy="545.15997"
       sodipodi:rx="15.224055"
       sodipodi:ry="15.224055"
       d="m 232.62356,545.15997 a 15.224055,15.224055 0 1 1 -30.44811,0 15.224055,15.224055 0 1 1 30.44811,0 z"
       transform="translate(495.08626,301.43629)" />
    <path
       sodipodi:type="arc"
       style="fill:#00ff00;fill-opacity:1;fill-rule:nonzero;stroke:none"
       id="path5037-9-6"
       sodipodi:cx="217.39951"
       sodipodi:cy="545.15997"
       sodipodi:rx="15.224055"
       sodipodi:ry="15.224055"
       d="m 232.62356,545.15997 a 15.224055,15.224055 0 1 1 -30.44811,0 15.224055,15.224055 0 1 1 30.44811,0 z"
       transform="translate(104.13254,301.43629)" />
  </g>
</svg>
